<mxfile host="app.diagrams.net" modified="2023-01-29T12:47:14.065Z" agent="5.0 (X11; Ubuntu)" etag="EeFkR7MBjnjIxWPrybIy" version="20.8.5" type="github">
  <diagram name="Page-1" id="74e2e168-ea6b-b213-b513-2b3c1d86103e">
    <mxGraphModel dx="1985" dy="1296" grid="0" gridSize="10" guides="1" tooltips="1" connect="1" arrows="1" fold="1" page="0" pageScale="1" pageWidth="1100" pageHeight="850" background="none" math="0" shadow="0">
      <root>
        <mxCell id="0" />
        <mxCell id="1" parent="0" />
        <mxCell id="77e6c97f196da883-1" value="Flujos de conversion/almacenamiento de monedas" style="swimlane;html=1;childLayout=stackLayout;startSize=48;rounded=0;shadow=0;labelBackgroundColor=none;strokeWidth=1;fontFamily=Lato;fontSize=20;align=center;fontSource=https%3A%2F%2Ffonts.googleapis.com%2Fcss%3Ffamily%3DLato;autosize=1;strokeColor=#E6E6E6;" parent="1" vertex="1">
          <mxGeometry x="70" y="-20" width="1433" height="1149" as="geometry" />
        </mxCell>
        <mxCell id="77e6c97f196da883-2" value="&lt;div&gt;Moneda&lt;/div&gt;&lt;div&gt;Exterior&lt;/div&gt;" style="swimlane;html=1;startSize=68;fontFamily=Lato;fontSource=https%3A%2F%2Ffonts.googleapis.com%2Fcss%3Ffamily%3DLato;fontSize=20;fillColor=#d5e8d4;strokeColor=#CCCCCC;autosize=1;verticalAlign=middle;" parent="77e6c97f196da883-1" vertex="1">
          <mxGeometry y="48" width="190" height="1101" as="geometry" />
        </mxCell>
        <mxCell id="pWdg90kbXN8Ci7GVcK-E-26" value="" style="group" vertex="1" connectable="0" parent="77e6c97f196da883-2">
          <mxGeometry x="46.5" y="293.89" width="100" height="433.11" as="geometry" />
        </mxCell>
        <mxCell id="77e6c97f196da883-8" value="USD" style="rounded=1;whiteSpace=wrap;html=1;shadow=0;labelBackgroundColor=none;strokeWidth=1;fontFamily=Lato;fontSize=20;align=center;fontSource=https%3A%2F%2Ffonts.googleapis.com%2Fcss%3Ffamily%3DLato;verticalAlign=top;fillColor=#d5e8d4;strokeColor=#82b366;" parent="pWdg90kbXN8Ci7GVcK-E-26" vertex="1">
          <mxGeometry width="100" height="433.11" as="geometry" />
        </mxCell>
        <mxCell id="1xJKque4gwnT1mqs9br3-9" value="" style="shape=image;html=1;verticalAlign=top;verticalLabelPosition=bottom;labelBackgroundColor=#ffffff;imageAspect=0;aspect=fixed;image=https://cdn1.iconfinder.com/data/icons/ionicons-fill-vol-2/512/logo-usd-128.png;strokeColor=#CCCCCC;fontFamily=Lato;fontSource=https%3A%2F%2Ffonts.googleapis.com%2Fcss%3Ffamily%3DLato;fontSize=14;" parent="pWdg90kbXN8Ci7GVcK-E-26" vertex="1">
          <mxGeometry x="21" y="174.11405857740584" width="58" height="58" as="geometry" />
        </mxCell>
        <mxCell id="77e6c97f196da883-3" value="&lt;div&gt;Payoneer&lt;/div&gt;&lt;div&gt;&lt;br&gt;&lt;/div&gt;" style="swimlane;html=1;startSize=68;fontFamily=Lato;fontSource=https%3A%2F%2Ffonts.googleapis.com%2Fcss%3Ffamily%3DLato;fontSize=20;fillColor=#ffff88;strokeColor=#CCCCCC;autosize=1;verticalAlign=middle;" parent="77e6c97f196da883-1" vertex="1">
          <mxGeometry x="190" y="48" width="203" height="1101" as="geometry" />
        </mxCell>
        <mxCell id="1xJKque4gwnT1mqs9br3-6" value="" style="edgeStyle=orthogonalEdgeStyle;rounded=0;orthogonalLoop=1;jettySize=auto;html=1;fontFamily=Lato;fontSource=https%3A%2F%2Ffonts.googleapis.com%2Fcss%3Ffamily%3DLato;fontSize=14;" parent="77e6c97f196da883-3" source="77e6c97f196da883-11" target="1xJKque4gwnT1mqs9br3-5" edge="1">
          <mxGeometry relative="1" as="geometry" />
        </mxCell>
        <mxCell id="1xJKque4gwnT1mqs9br3-7" value="&lt;div&gt;Transferir&lt;/div&gt;&lt;div&gt;(Top-Up)&lt;br&gt;&lt;/div&gt;" style="edgeLabel;html=1;align=center;verticalAlign=middle;resizable=0;points=[];fontSize=14;fontFamily=Lato;" parent="1xJKque4gwnT1mqs9br3-6" vertex="1" connectable="0">
          <mxGeometry x="-0.2024" y="1" relative="1" as="geometry">
            <mxPoint x="-1" y="-3" as="offset" />
          </mxGeometry>
        </mxCell>
        <mxCell id="77e6c97f196da883-11" value="&lt;div style=&quot;font-size: 18px;&quot;&gt;Cuenta&lt;/div&gt;&lt;div style=&quot;font-size: 18px;&quot;&gt;Personal&lt;br style=&quot;font-size: 18px;&quot;&gt;&lt;/div&gt;" style="rounded=1;whiteSpace=wrap;html=1;shadow=0;labelBackgroundColor=none;strokeWidth=1;fontFamily=Lato;fontSize=18;align=center;fontSource=https%3A%2F%2Ffonts.googleapis.com%2Fcss%3Ffamily%3DLato;fillColor=#d5e8d4;strokeColor=#82b366;" parent="77e6c97f196da883-3" vertex="1">
          <mxGeometry x="55.5" y="208.89" width="100" height="60" as="geometry" />
        </mxCell>
        <mxCell id="1xJKque4gwnT1mqs9br3-5" value="&lt;div style=&quot;font-size: 18px;&quot;&gt;Tarjeta Deb.&lt;br style=&quot;font-size: 18px;&quot;&gt;&lt;/div&gt;&lt;div style=&quot;font-size: 18px;&quot;&gt;(Fis. o Vir.)&lt;br style=&quot;font-size: 18px;&quot;&gt;&lt;/div&gt;" style="whiteSpace=wrap;html=1;fontSize=18;fontFamily=Lato;rounded=1;shadow=0;labelBackgroundColor=none;strokeWidth=1;fontSource=https%3A%2F%2Ffonts.googleapis.com%2Fcss%3Ffamily%3DLato;verticalAlign=top;fillColor=#d5e8d4;strokeColor=#82b366;" parent="77e6c97f196da883-3" vertex="1">
          <mxGeometry x="45.5" y="361.89" width="120" height="103" as="geometry" />
        </mxCell>
        <mxCell id="1xJKque4gwnT1mqs9br3-8" value="" style="shape=image;html=1;verticalAlign=top;verticalLabelPosition=bottom;labelBackgroundColor=#ffffff;imageAspect=0;aspect=fixed;image=https://cdn0.iconfinder.com/data/icons/credit-card-debit-card-payment-PNG/80/Mastercard-Curved.png;strokeColor=#CCCCCC;fontFamily=Lato;fontSource=https%3A%2F%2Ffonts.googleapis.com%2Fcss%3Ffamily%3DLato;fontSize=14;" parent="77e6c97f196da883-3" vertex="1">
          <mxGeometry x="83" y="419.89" width="45" height="45" as="geometry" />
        </mxCell>
        <mxCell id="1xJKque4gwnT1mqs9br3-14" value="KYC" style="shape=image;html=1;verticalAlign=top;verticalLabelPosition=bottom;labelBackgroundColor=#ffffff;imageAspect=0;aspect=fixed;image=https://cdn0.iconfinder.com/data/icons/phosphor-regular-vol-3/256/identification-card-128.png;strokeColor=#CCCCCC;fontFamily=Lato;fontSource=https%3A%2F%2Ffonts.googleapis.com%2Fcss%3Ffamily%3DLato;fontSize=15;" parent="77e6c97f196da883-3" vertex="1">
          <mxGeometry x="76" y="89" width="51" height="51" as="geometry" />
        </mxCell>
        <mxCell id="pWdg90kbXN8Ci7GVcK-E-18" value="&lt;b style=&quot;font-size: 18px;&quot;&gt;&lt;font data-font-src=&quot;https://fonts.googleapis.com/css?family=Lato&quot; style=&quot;font-size: 18px;&quot; face=&quot;Lato&quot; color=&quot;#FF0000&quot;&gt;&lt;span style=&quot;font-size: 18px;&quot;&gt;-1%&lt;/span&gt;&lt;/font&gt;&lt;/b&gt;" style="text;html=1;strokeColor=none;fillColor=none;align=center;verticalAlign=middle;whiteSpace=wrap;rounded=0;fontSize=18;fontStyle=0" vertex="1" parent="77e6c97f196da883-3">
          <mxGeometry x="-4.5" y="235" width="60" height="30" as="geometry" />
        </mxCell>
        <mxCell id="77e6c97f196da883-26" style="edgeStyle=orthogonalEdgeStyle;rounded=1;html=1;labelBackgroundColor=none;startArrow=none;startFill=0;startSize=5;endArrow=classicThin;endFill=1;endSize=5;jettySize=auto;orthogonalLoop=1;strokeWidth=1;fontFamily=Lato;fontSize=20;fontSource=https%3A%2F%2Ffonts.googleapis.com%2Fcss%3Ffamily%3DLato;exitX=0.5;exitY=0;exitDx=0;exitDy=0;" parent="77e6c97f196da883-1" source="77e6c97f196da883-8" target="77e6c97f196da883-11" edge="1">
          <mxGeometry relative="1" as="geometry">
            <Array as="points">
              <mxPoint x="96.5" y="280.89" />
            </Array>
          </mxGeometry>
        </mxCell>
        <mxCell id="1xJKque4gwnT1mqs9br3-2" value="Depósito" style="edgeLabel;html=1;align=center;verticalAlign=middle;resizable=0;points=[];fontSize=14;fontFamily=Lato;" parent="77e6c97f196da883-26" vertex="1" connectable="0">
          <mxGeometry x="0.277" relative="1" as="geometry">
            <mxPoint x="22" y="-15" as="offset" />
          </mxGeometry>
        </mxCell>
        <mxCell id="1xJKque4gwnT1mqs9br3-11" style="edgeStyle=orthogonalEdgeStyle;rounded=1;html=1;labelBackgroundColor=none;startArrow=none;startFill=0;startSize=5;endArrow=classicThin;endFill=1;endSize=5;jettySize=auto;orthogonalLoop=1;strokeWidth=1;fontFamily=Lato;fontSize=20;fontSource=https%3A%2F%2Ffonts.googleapis.com%2Fcss%3Ffamily%3DLato;exitX=0.25;exitY=0;exitDx=0;exitDy=0;entryX=0.5;entryY=0;entryDx=0;entryDy=0;" parent="77e6c97f196da883-1" source="77e6c97f196da883-8" target="1xJKque4gwnT1mqs9br3-13" edge="1">
          <mxGeometry relative="1" as="geometry">
            <mxPoint x="81.5" y="341.89" as="sourcePoint" />
            <Array as="points">
              <mxPoint x="72" y="240" />
              <mxPoint x="487" y="240" />
              <mxPoint x="487" y="288" />
            </Array>
          </mxGeometry>
        </mxCell>
        <mxCell id="1xJKque4gwnT1mqs9br3-12" value="Depósito" style="edgeLabel;html=1;align=center;verticalAlign=middle;resizable=0;points=[];fontSize=14;fontFamily=Lato;" parent="1xJKque4gwnT1mqs9br3-11" vertex="1" connectable="0">
          <mxGeometry x="0.277" relative="1" as="geometry">
            <mxPoint x="102" y="-14" as="offset" />
          </mxGeometry>
        </mxCell>
        <mxCell id="1xJKque4gwnT1mqs9br3-1" value="&lt;div&gt;Deel&lt;/div&gt;&lt;div&gt;&lt;br&gt;&lt;/div&gt;" style="swimlane;html=1;startSize=68;fontFamily=Lato;fontSource=https%3A%2F%2Ffonts.googleapis.com%2Fcss%3Ffamily%3DLato;fontSize=20;fillColor=#ffff88;strokeColor=#CCCCCC;autosize=1;verticalAlign=middle;" parent="77e6c97f196da883-1" vertex="1">
          <mxGeometry x="393" y="48" width="180" height="1101" as="geometry" />
        </mxCell>
        <mxCell id="1xJKque4gwnT1mqs9br3-13" value="&lt;div style=&quot;font-size: 18px;&quot;&gt;Cuenta&lt;/div&gt;&lt;div style=&quot;font-size: 18px;&quot;&gt;Personal&lt;br style=&quot;font-size: 18px;&quot;&gt;&lt;/div&gt;" style="rounded=1;whiteSpace=wrap;html=1;shadow=0;labelBackgroundColor=none;strokeWidth=1;fontFamily=Lato;fontSize=18;align=center;fontSource=https%3A%2F%2Ffonts.googleapis.com%2Fcss%3Ffamily%3DLato;fillColor=#d5e8d4;strokeColor=#82b366;" parent="1xJKque4gwnT1mqs9br3-1" vertex="1">
          <mxGeometry x="43.50000000000023" y="239.89" width="100" height="60" as="geometry" />
        </mxCell>
        <mxCell id="1xJKque4gwnT1mqs9br3-15" value="KYC" style="shape=image;html=1;verticalAlign=top;verticalLabelPosition=bottom;labelBackgroundColor=#ffffff;imageAspect=0;aspect=fixed;image=https://cdn0.iconfinder.com/data/icons/phosphor-regular-vol-3/256/identification-card-128.png;strokeColor=#CCCCCC;fontFamily=Lato;fontSource=https%3A%2F%2Ffonts.googleapis.com%2Fcss%3Ffamily%3DLato;fontSize=15;" parent="1xJKque4gwnT1mqs9br3-1" vertex="1">
          <mxGeometry x="64.5" y="89" width="51" height="51" as="geometry" />
        </mxCell>
        <mxCell id="77e6c97f196da883-4" value="&lt;div&gt;Binance&lt;/div&gt;&lt;div&gt;&lt;br&gt;&lt;/div&gt;" style="swimlane;html=1;startSize=68;fontFamily=Lato;fontSource=https%3A%2F%2Ffonts.googleapis.com%2Fcss%3Ffamily%3DLato;fontSize=20;fillColor=#ffcc99;strokeColor=#CCCCCC;autosize=1;verticalAlign=middle;" parent="77e6c97f196da883-1" vertex="1">
          <mxGeometry x="573" y="48" width="200" height="1101" as="geometry" />
        </mxCell>
        <mxCell id="1xJKque4gwnT1mqs9br3-16" value="KYC" style="shape=image;html=1;verticalAlign=top;verticalLabelPosition=bottom;labelBackgroundColor=#ffffff;imageAspect=0;aspect=fixed;image=https://cdn0.iconfinder.com/data/icons/phosphor-regular-vol-3/256/identification-card-128.png;strokeColor=#CCCCCC;fontFamily=Lato;fontSource=https%3A%2F%2Ffonts.googleapis.com%2Fcss%3Ffamily%3DLato;fontSize=15;" parent="77e6c97f196da883-4" vertex="1">
          <mxGeometry x="74.5" y="89" width="51" height="51" as="geometry" />
        </mxCell>
        <mxCell id="pWdg90kbXN8Ci7GVcK-E-2" value="" style="edgeStyle=orthogonalEdgeStyle;rounded=0;orthogonalLoop=1;jettySize=auto;html=1;" edge="1" parent="77e6c97f196da883-4" source="1xJKque4gwnT1mqs9br3-19" target="pWdg90kbXN8Ci7GVcK-E-1">
          <mxGeometry relative="1" as="geometry" />
        </mxCell>
        <mxCell id="pWdg90kbXN8Ci7GVcK-E-3" value="&lt;font style=&quot;font-size: 13px;&quot;&gt;P2P&lt;/font&gt;" style="edgeLabel;html=1;align=center;verticalAlign=middle;resizable=0;points=[];labelBackgroundColor=default;" vertex="1" connectable="0" parent="pWdg90kbXN8Ci7GVcK-E-2">
          <mxGeometry x="0.3106" y="-2" relative="1" as="geometry">
            <mxPoint x="15" y="-1" as="offset" />
          </mxGeometry>
        </mxCell>
        <mxCell id="pWdg90kbXN8Ci7GVcK-E-4" value="" style="edgeStyle=orthogonalEdgeStyle;rounded=0;orthogonalLoop=1;jettySize=auto;html=1;fontSize=13;labelBackgroundColor=default;" edge="1" parent="77e6c97f196da883-4" source="1xJKque4gwnT1mqs9br3-19" target="pWdg90kbXN8Ci7GVcK-E-1">
          <mxGeometry relative="1" as="geometry" />
        </mxCell>
        <mxCell id="1xJKque4gwnT1mqs9br3-19" value="&lt;div style=&quot;font-size: 18px;&quot;&gt;Billetera&lt;/div&gt;&lt;div style=&quot;font-size: 18px;&quot;&gt;Spot&lt;/div&gt;&lt;div style=&quot;font-size: 18px;&quot;&gt;(BTC, USDT, BUSD, ++)&lt;br style=&quot;font-size: 18px;&quot;&gt;&lt;/div&gt;" style="whiteSpace=wrap;html=1;fontSize=18;fontFamily=Lato;verticalAlign=top;rounded=1;shadow=0;labelBackgroundColor=none;strokeWidth=1;fontSource=https%3A%2F%2Ffonts.googleapis.com%2Fcss%3Ffamily%3DLato;fillColor=#e1d5e7;strokeColor=#9673a6;" parent="77e6c97f196da883-4" vertex="1">
          <mxGeometry x="44.75" y="293" width="120" height="111.61" as="geometry" />
        </mxCell>
        <mxCell id="pWdg90kbXN8Ci7GVcK-E-1" value="&lt;div&gt;Vender&lt;/div&gt;&lt;div&gt;(Sell)&lt;br&gt;&lt;/div&gt;" style="whiteSpace=wrap;html=1;fontSize=18;fontFamily=Lato;verticalAlign=top;fillColor=#e1d5e7;strokeColor=#9673a6;rounded=1;shadow=0;labelBackgroundColor=none;strokeWidth=1;fontSource=https%3A%2F%2Ffonts.googleapis.com%2Fcss%3Ffamily%3DLato;" vertex="1" parent="77e6c97f196da883-4">
          <mxGeometry x="44.75" y="510.41499999999996" width="120" height="60" as="geometry" />
        </mxCell>
        <mxCell id="pWdg90kbXN8Ci7GVcK-E-5" value="Cuenta de 3ro" style="whiteSpace=wrap;html=1;fontSize=18;fontFamily=Lato;verticalAlign=top;fillColor=#e1d5e7;strokeColor=#9673a6;rounded=1;shadow=0;labelBackgroundColor=none;strokeWidth=1;fontSource=https%3A%2F%2Ffonts.googleapis.com%2Fcss%3Ffamily%3DLato;" vertex="1" parent="77e6c97f196da883-4">
          <mxGeometry x="44.75" y="732.005" width="120" height="60" as="geometry" />
        </mxCell>
        <mxCell id="pWdg90kbXN8Ci7GVcK-E-6" style="edgeStyle=orthogonalEdgeStyle;rounded=0;orthogonalLoop=1;jettySize=auto;html=1;exitX=0.25;exitY=1;exitDx=0;exitDy=0;fontSize=13;" edge="1" parent="77e6c97f196da883-4" source="1xJKque4gwnT1mqs9br3-19" target="pWdg90kbXN8Ci7GVcK-E-5">
          <mxGeometry relative="1" as="geometry">
            <Array as="points">
              <mxPoint x="75.25" y="432" />
              <mxPoint x="35.25" y="432" />
              <mxPoint x="35.25" y="599" />
              <mxPoint x="98.25" y="599" />
            </Array>
          </mxGeometry>
        </mxCell>
        <mxCell id="pWdg90kbXN8Ci7GVcK-E-7" value="&lt;div&gt;Enviar&lt;/div&gt;&lt;div&gt;(BinanceID,&lt;/div&gt;&lt;div&gt;Email)&lt;br&gt;&lt;/div&gt;" style="edgeLabel;html=1;align=center;verticalAlign=middle;resizable=0;points=[];fontSize=13;" vertex="1" connectable="0" parent="pWdg90kbXN8Ci7GVcK-E-6">
          <mxGeometry x="0.602" y="-5" relative="1" as="geometry">
            <mxPoint y="24" as="offset" />
          </mxGeometry>
        </mxCell>
        <mxCell id="pWdg90kbXN8Ci7GVcK-E-19" value="&lt;b style=&quot;font-size: 18px;&quot;&gt;&lt;font data-font-src=&quot;https://fonts.googleapis.com/css?family=Lato&quot; style=&quot;font-size: 18px;&quot; face=&quot;Lato&quot; color=&quot;#FF0000&quot;&gt;&lt;span style=&quot;font-size: 18px;&quot;&gt;-2%&lt;/span&gt;&lt;/font&gt;&lt;/b&gt;" style="text;html=1;strokeColor=none;fillColor=none;align=center;verticalAlign=middle;whiteSpace=wrap;rounded=0;fontSize=18;fontStyle=0" vertex="1" parent="77e6c97f196da883-4">
          <mxGeometry x="94" y="246" width="60" height="30" as="geometry" />
        </mxCell>
        <mxCell id="77e6c97f196da883-5" value="&lt;div&gt;Kucoin&lt;/div&gt;&lt;div&gt;&lt;br&gt;&lt;/div&gt;" style="swimlane;html=1;startSize=68;fontFamily=Lato;fontSource=https%3A%2F%2Ffonts.googleapis.com%2Fcss%3Ffamily%3DLato;fontSize=20;fillColor=#ffcc99;strokeColor=#CCCCCC;autosize=1;verticalAlign=middle;" parent="77e6c97f196da883-1" vertex="1">
          <mxGeometry x="773" y="48" width="200" height="1101" as="geometry" />
        </mxCell>
        <mxCell id="77e6c97f196da883-6" value="&lt;div&gt;Cuenta Bancaria &lt;br&gt;&lt;/div&gt;&lt;div&gt;Billetera Virtual&lt;br&gt;&lt;/div&gt;" style="swimlane;html=1;startSize=68;fontFamily=Lato;fontSource=https%3A%2F%2Ffonts.googleapis.com%2Fcss%3Ffamily%3DLato;fontSize=20;fillColor=#cce5ff;strokeColor=#CCCCCC;autosize=1;verticalAlign=middle;" parent="77e6c97f196da883-1" vertex="1">
          <mxGeometry x="973" y="48" width="186" height="1101" as="geometry" />
        </mxCell>
        <mxCell id="pWdg90kbXN8Ci7GVcK-E-20" value="&lt;div&gt;Banco,&lt;/div&gt;&lt;div&gt;Uala, MP&lt;/div&gt;&lt;div&gt;++&lt;br&gt;&lt;/div&gt;" style="whiteSpace=wrap;html=1;fontSize=18;fontFamily=Lato;verticalAlign=top;rounded=1;shadow=0;labelBackgroundColor=none;strokeWidth=1;fontSource=https%3A%2F%2Ffonts.googleapis.com%2Fcss%3Ffamily%3DLato;fillColor=#dae8fc;strokeColor=#6c8ebf;" vertex="1" parent="77e6c97f196da883-6">
          <mxGeometry x="33" y="183.07999999999998" width="120" height="111.61" as="geometry" />
        </mxCell>
        <mxCell id="1xJKque4gwnT1mqs9br3-20" value="" style="edgeStyle=orthogonalEdgeStyle;rounded=0;orthogonalLoop=1;jettySize=auto;html=1;fontFamily=Lato;fontSource=https%3A%2F%2Ffonts.googleapis.com%2Fcss%3Ffamily%3DLato;fontSize=15;entryX=0.5;entryY=0;entryDx=0;entryDy=0;" parent="77e6c97f196da883-1" source="1xJKque4gwnT1mqs9br3-5" target="1xJKque4gwnT1mqs9br3-19" edge="1">
          <mxGeometry relative="1" as="geometry">
            <Array as="points">
              <mxPoint x="589" y="461" />
              <mxPoint x="589" y="235" />
              <mxPoint x="677" y="235" />
              <mxPoint x="677" y="290" />
            </Array>
          </mxGeometry>
        </mxCell>
        <mxCell id="1xJKque4gwnT1mqs9br3-21" value="&lt;div&gt;Comprar&lt;/div&gt;&lt;div&gt;(Buy with USD)&lt;br&gt;&lt;/div&gt;" style="edgeLabel;html=1;align=center;verticalAlign=middle;resizable=0;points=[];fontSize=15;fontFamily=Lato;" parent="1xJKque4gwnT1mqs9br3-20" vertex="1" connectable="0">
          <mxGeometry x="0.8988" y="2" relative="1" as="geometry">
            <mxPoint x="-2" y="-45" as="offset" />
          </mxGeometry>
        </mxCell>
        <mxCell id="77e6c97f196da883-7" value="&lt;div&gt;Moneda&lt;/div&gt;&lt;div&gt;Interior&lt;br&gt;&lt;/div&gt;" style="swimlane;html=1;startSize=68;fontFamily=Lato;fontSource=https%3A%2F%2Ffonts.googleapis.com%2Fcss%3Ffamily%3DLato;fontSize=20;fillColor=#cce5ff;strokeColor=#CCCCCC;autosize=1;verticalAlign=middle;" parent="77e6c97f196da883-1" vertex="1">
          <mxGeometry x="1159" y="48" width="274" height="1101" as="geometry" />
        </mxCell>
        <mxCell id="pWdg90kbXN8Ci7GVcK-E-21" value="&lt;b style=&quot;font-size: 18px;&quot;&gt;&lt;font data-font-src=&quot;https://fonts.googleapis.com/css?family=Lato&quot; style=&quot;font-size: 18px;&quot; face=&quot;Lato&quot; color=&quot;#FF0000&quot;&gt;&lt;span style=&quot;font-size: 18px;&quot;&gt;-3% a -10%&lt;br&gt;&lt;/span&gt;&lt;/font&gt;&lt;/b&gt;" style="text;html=1;strokeColor=none;fillColor=none;align=center;verticalAlign=middle;whiteSpace=wrap;rounded=0;fontSize=18;fontStyle=0" vertex="1" parent="77e6c97f196da883-7">
          <mxGeometry x="13" y="694" width="60" height="30" as="geometry" />
        </mxCell>
        <mxCell id="pWdg90kbXN8Ci7GVcK-E-16" value="" style="group" vertex="1" connectable="0" parent="77e6c97f196da883-7">
          <mxGeometry x="109" y="86" width="109" height="508" as="geometry" />
        </mxCell>
        <mxCell id="pWdg90kbXN8Ci7GVcK-E-12" value="ARS" style="rounded=1;whiteSpace=wrap;html=1;shadow=0;labelBackgroundColor=none;strokeWidth=1;fontFamily=Lato;fontSize=20;align=center;fontSource=https%3A%2F%2Ffonts.googleapis.com%2Fcss%3Ffamily%3DLato;verticalAlign=top;fillColor=#dae8fc;strokeColor=#6c8ebf;" vertex="1" parent="pWdg90kbXN8Ci7GVcK-E-16">
          <mxGeometry width="109" height="508" as="geometry" />
        </mxCell>
        <mxCell id="pWdg90kbXN8Ci7GVcK-E-9" value="USD" style="rounded=1;whiteSpace=wrap;html=1;shadow=0;labelBackgroundColor=none;strokeWidth=1;fontFamily=Lato;fontSize=20;align=center;fontSource=https%3A%2F%2Ffonts.googleapis.com%2Fcss%3Ffamily%3DLato;verticalAlign=top;fillColor=#d5e8d4;strokeColor=#82b366;" vertex="1" parent="77e6c97f196da883-7">
          <mxGeometry x="107" y="626" width="109" height="433.11" as="geometry" />
        </mxCell>
        <mxCell id="pWdg90kbXN8Ci7GVcK-E-17" style="edgeStyle=orthogonalEdgeStyle;rounded=0;orthogonalLoop=1;jettySize=auto;html=1;entryX=0;entryY=0.25;entryDx=0;entryDy=0;fontSize=13;" edge="1" parent="77e6c97f196da883-1" source="pWdg90kbXN8Ci7GVcK-E-5" target="pWdg90kbXN8Ci7GVcK-E-9">
          <mxGeometry relative="1" as="geometry" />
        </mxCell>
        <mxCell id="pWdg90kbXN8Ci7GVcK-E-22" style="edgeStyle=orthogonalEdgeStyle;rounded=0;orthogonalLoop=1;jettySize=auto;html=1;entryX=0;entryY=0.25;entryDx=0;entryDy=0;labelBackgroundColor=default;fontFamily=Lato;fontSource=https%3A%2F%2Ffonts.googleapis.com%2Fcss%3Ffamily%3DLato;fontSize=18;fontColor=#FF0000;" edge="1" parent="77e6c97f196da883-1" source="pWdg90kbXN8Ci7GVcK-E-20" target="pWdg90kbXN8Ci7GVcK-E-12">
          <mxGeometry relative="1" as="geometry" />
        </mxCell>
        <mxCell id="pWdg90kbXN8Ci7GVcK-E-23" value="ATM" style="edgeLabel;html=1;align=center;verticalAlign=middle;resizable=0;points=[];fontSize=18;fontFamily=Lato;fontColor=default;" vertex="1" connectable="0" parent="pWdg90kbXN8Ci7GVcK-E-22">
          <mxGeometry x="0.4505" relative="1" as="geometry">
            <mxPoint y="-20" as="offset" />
          </mxGeometry>
        </mxCell>
        <mxCell id="pWdg90kbXN8Ci7GVcK-E-24" style="edgeStyle=orthogonalEdgeStyle;rounded=0;orthogonalLoop=1;jettySize=auto;html=1;entryX=0.5;entryY=0;entryDx=0;entryDy=0;labelBackgroundColor=default;fontFamily=Lato;fontSource=https%3A%2F%2Ffonts.googleapis.com%2Fcss%3Ffamily%3DLato;fontSize=18;fontColor=default;" edge="1" parent="77e6c97f196da883-1" source="pWdg90kbXN8Ci7GVcK-E-1" target="pWdg90kbXN8Ci7GVcK-E-20">
          <mxGeometry relative="1" as="geometry">
            <Array as="points">
              <mxPoint x="872" y="588" />
              <mxPoint x="872" y="161" />
              <mxPoint x="1066" y="161" />
            </Array>
          </mxGeometry>
        </mxCell>
        <mxCell id="pWdg90kbXN8Ci7GVcK-E-25" value="Transferencia" style="edgeLabel;html=1;align=center;verticalAlign=middle;resizable=0;points=[];fontSize=18;fontFamily=Lato;fontColor=default;" vertex="1" connectable="0" parent="pWdg90kbXN8Ci7GVcK-E-24">
          <mxGeometry x="0.8631" y="-2" relative="1" as="geometry">
            <mxPoint x="-1" y="13" as="offset" />
          </mxGeometry>
        </mxCell>
      </root>
    </mxGraphModel>
  </diagram>
</mxfile>
